<?xml version="1.0" encoding="UTF-8"?>
<svg id="Layer_1" data-name="Layer 1" xmlns="http://www.w3.org/2000/svg" viewBox="0 0 162.19 54.54">
  <defs>
    <style>
      .cls-1 {
        fill: #28292a;
      }
    </style>
  </defs>
  <g>
    <path class="cls-1" d="m78.35,11.23c-3.42-3.25-8.01-4.88-13.77-4.88s-10.35,1.63-13.77,4.88c-.3.29-.59.59-.85.9,2.9,4.33,4.59,9.54,4.59,15.14,0,4.94-1.31,9.58-3.62,13.57,3.25,3.25,7.73,4.86,13.46,4.86s10.58-1.7,13.99-5.1c3.4-3.4,5.1-8.33,5.1-14.79s-1.71-11.32-5.13-14.58Zm-13.87,24.07c-3.19-.03-4.78-3.12-4.78-9.28s1.63-9.22,4.91-9.22,4.9,3.06,4.9,9.18-1.67,9.22-5.03,9.32Z"/>
    <path class="cls-1" d="m106.09,24.27v7.52h2.68c-.71,2.34-2.26,3.51-4.64,3.51-3.29,0-4.93-3.09-4.93-9.28s1.61-9.27,4.84-9.27h.09c2.38,0,3.94,1.59,4.69,4.78l12.99-3.07c-.91-3.88-3.02-6.9-6.33-9.06-3.3-2.17-7.3-3.25-12.01-3.25s-8.96,1.69-12.76,5.08c-3.81,3.39-5.72,8.24-5.72,14.58s1.7,11.19,5.1,14.57c3.41,3.39,7.7,5.08,12.87,5.08,4.13,0,6.97-.91,8.5-2.74l.49,2.1h10.49v-20.55h-16.35Z"/>
    <path class="cls-1" d="m157.06,11.23c-3.42-3.25-8-4.88-13.77-4.88s-10.35,1.63-13.77,4.88c-3.41,3.26-5.12,8.08-5.12,14.48s1.63,11.33,4.9,14.79c3.28,3.47,7.87,5.2,13.8,5.2s10.59-1.7,13.99-5.1,5.1-8.33,5.1-14.79-1.71-11.32-5.13-14.58Zm-13.86,24.07c-3.19-.03-4.79-3.12-4.79-9.28s1.64-9.22,4.91-9.22,4.91,3.06,4.91,9.18-1.68,9.22-5.03,9.32Z"/>
  </g>
  <path class="cls-1" d="m50.59,40.5c-3.27-3.46-4.9-8.4-4.9-14.79,0-5.83,1.41-10.36,4.27-13.58C45.07,4.82,36.74,0,27.28,0,12.21,0,0,12.21,0,27.27s12.21,27.27,27.28,27.27c10.12,0,18.95-5.51,23.65-13.7-.11-.1-.23-.22-.34-.34Zm-6.96,4.32H12.14V7.23h13.53v28.07h17.96v9.52Z"/>
</svg>